<?xml version="1.0" encoding="UTF-8" standalone="no"?>
<!DOCTYPE svg PUBLIC "-//W3C//DTD SVG 1.1//EN" "http://www.w3.org/Graphics/SVG/1.1/DTD/svg11.dtd">
<svg width="100%" height="100%" viewBox="0 0 121 555" version="1.1" xmlns="http://www.w3.org/2000/svg" xmlns:xlink="http://www.w3.org/1999/xlink" xml:space="preserve" xmlns:serif="http://www.serif.com/" style="fill-rule:evenodd;clip-rule:evenodd;stroke-linejoin:round;stroke-miterlimit:2;">
    <g transform="matrix(4.16667,0,0,4.16667,100,554.167)">
        <g id="Rectangle-4" serif:id="Rectangle 4">
            <g>
                <g>
                    <path d="M0,-133L-24,-133L-24,0L0,0C2.761,0 5,-2.239 5,-5L5,-128C5,-130.761 2.761,-133 0,-133" style="fill:rgb(198,3,0);"/>
                </g>
            </g>
        </g>
    </g>
    <g id="English" transform="matrix(4.16667,0,0,4.16667,0,0)">
        <g transform="matrix(0,-0.24,0.24,0,5.72189,74.3643)">
            <g transform="matrix(66.6667,0,0,66.6667,-97.8477,52.9288)">
                <path d="M0.436,-0.476C0.425,-0.537 0.38,-0.568 0.301,-0.568C0.259,-0.568 0.227,-0.559 0.204,-0.541C0.181,-0.522 0.17,-0.5 0.17,-0.475C0.17,-0.449 0.177,-0.429 0.191,-0.416C0.205,-0.403 0.228,-0.391 0.259,-0.381L0.39,-0.336C0.435,-0.321 0.47,-0.3 0.497,-0.273C0.523,-0.246 0.536,-0.209 0.536,-0.161C0.536,-0.112 0.515,-0.071 0.474,-0.039C0.433,-0.006 0.377,0.011 0.308,0.011C0.239,0.011 0.182,-0.007 0.138,-0.042C0.093,-0.077 0.07,-0.126 0.069,-0.189L0.146,-0.189C0.146,-0.148 0.161,-0.116 0.19,-0.094C0.219,-0.072 0.256,-0.061 0.302,-0.061C0.347,-0.061 0.383,-0.071 0.41,-0.092C0.437,-0.112 0.45,-0.136 0.45,-0.164C0.45,-0.191 0.442,-0.213 0.426,-0.229C0.409,-0.245 0.385,-0.258 0.353,-0.269L0.242,-0.31C0.19,-0.327 0.151,-0.348 0.124,-0.372C0.097,-0.396 0.084,-0.431 0.084,-0.478C0.084,-0.524 0.103,-0.563 0.14,-0.594C0.177,-0.624 0.23,-0.64 0.297,-0.64C0.364,-0.64 0.416,-0.625 0.452,-0.596C0.487,-0.566 0.508,-0.526 0.513,-0.476L0.436,-0.476Z" style="fill:white;fill-rule:nonzero;"/>
            </g>
            <g transform="matrix(66.6667,0,0,66.6667,-59.081,52.9288)">
                <path d="M0.426,-0.095C0.393,-0.026 0.34,0.009 0.267,0.009C0.213,0.009 0.169,-0.006 0.137,-0.036C0.103,-0.066 0.087,-0.112 0.087,-0.175L0.087,-0.479L0.166,-0.479L0.166,-0.181C0.166,-0.1 0.203,-0.06 0.278,-0.06C0.321,-0.06 0.357,-0.077 0.384,-0.11C0.411,-0.143 0.425,-0.186 0.426,-0.238L0.426,-0.479L0.505,-0.479L0.505,-0L0.426,-0L0.426,-0.095Z" style="fill:white;fill-rule:nonzero;"/>
            </g>
            <g transform="matrix(66.6667,0,0,66.6667,-20.7477,52.9288)">
                <path d="M0.175,-0.405C0.206,-0.462 0.253,-0.49 0.316,-0.49C0.378,-0.49 0.43,-0.467 0.472,-0.421C0.513,-0.375 0.534,-0.314 0.534,-0.239C0.534,-0.164 0.513,-0.103 0.471,-0.058C0.429,-0.012 0.377,0.011 0.316,0.011C0.255,0.011 0.209,-0.012 0.18,-0.058L0.18,0.235L0.101,0.235L0.101,-0.478L0.166,-0.478L0.175,-0.405ZM0.312,-0.059C0.349,-0.059 0.382,-0.075 0.411,-0.107C0.439,-0.139 0.453,-0.183 0.453,-0.239C0.453,-0.294 0.44,-0.338 0.413,-0.371C0.386,-0.404 0.353,-0.42 0.314,-0.42C0.275,-0.42 0.244,-0.408 0.219,-0.384C0.194,-0.359 0.181,-0.326 0.18,-0.285L0.18,-0.194C0.18,-0.152 0.193,-0.119 0.218,-0.095C0.243,-0.071 0.275,-0.059 0.312,-0.059Z" style="fill:white;fill-rule:nonzero;"/>
            </g>
            <g transform="matrix(66.6667,0,0,66.6667,17.4323,52.9288)">
                <path d="M0.175,-0.405C0.206,-0.462 0.253,-0.49 0.316,-0.49C0.378,-0.49 0.43,-0.467 0.472,-0.421C0.513,-0.375 0.534,-0.314 0.534,-0.239C0.534,-0.164 0.513,-0.103 0.471,-0.058C0.429,-0.012 0.377,0.011 0.316,0.011C0.255,0.011 0.209,-0.012 0.18,-0.058L0.18,0.235L0.101,0.235L0.101,-0.478L0.166,-0.478L0.175,-0.405ZM0.312,-0.059C0.349,-0.059 0.382,-0.075 0.411,-0.107C0.439,-0.139 0.453,-0.183 0.453,-0.239C0.453,-0.294 0.44,-0.338 0.413,-0.371C0.386,-0.404 0.353,-0.42 0.314,-0.42C0.275,-0.42 0.244,-0.408 0.219,-0.384C0.194,-0.359 0.181,-0.326 0.18,-0.285L0.18,-0.194C0.18,-0.152 0.193,-0.119 0.218,-0.095C0.243,-0.071 0.275,-0.059 0.312,-0.059Z" style="fill:white;fill-rule:nonzero;"/>
            </g>
            <g transform="matrix(66.6667,0,0,66.6667,56.599,52.9288)">
                <path d="M0.273,-0.49C0.34,-0.49 0.393,-0.468 0.435,-0.425C0.475,-0.382 0.496,-0.32 0.496,-0.239C0.496,-0.159 0.475,-0.097 0.435,-0.054C0.393,-0.011 0.34,0.011 0.273,0.011C0.206,0.011 0.153,-0.011 0.112,-0.054C0.071,-0.097 0.05,-0.159 0.05,-0.239C0.05,-0.32 0.071,-0.382 0.112,-0.425C0.153,-0.468 0.206,-0.49 0.273,-0.49ZM0.416,-0.239C0.416,-0.296 0.404,-0.341 0.38,-0.374C0.356,-0.406 0.321,-0.422 0.275,-0.422C0.228,-0.422 0.193,-0.406 0.168,-0.374C0.143,-0.341 0.131,-0.297 0.131,-0.24C0.131,-0.183 0.143,-0.138 0.166,-0.106C0.189,-0.073 0.224,-0.057 0.271,-0.057C0.317,-0.057 0.353,-0.073 0.378,-0.106C0.403,-0.138 0.416,-0.182 0.416,-0.239Z" style="fill:white;fill-rule:nonzero;"/>
            </g>
            <g transform="matrix(66.6667,0,0,66.6667,91.9523,52.9288)">
                <path d="M0.296,-0.411C0.221,-0.411 0.182,-0.352 0.179,-0.233L0.179,-0L0.1,-0L0.1,-0.479L0.179,-0.479L0.179,-0.387C0.203,-0.454 0.245,-0.487 0.306,-0.487C0.325,-0.487 0.344,-0.484 0.361,-0.478L0.357,-0.401C0.337,-0.408 0.317,-0.411 0.296,-0.411Z" style="fill:white;fill-rule:nonzero;"/>
            </g>
            <g transform="matrix(66.6667,0,0,66.6667,118.799,52.9288)">
                <path d="M0.351,-0.014C0.294,0.013 0.241,0.018 0.194,0.003C0.16,-0.008 0.136,-0.03 0.122,-0.064C0.115,-0.081 0.111,-0.101 0.111,-0.124L0.111,-0.418L0.034,-0.418L0.034,-0.478L0.111,-0.478L0.111,-0.611L0.189,-0.611L0.189,-0.478L0.339,-0.478L0.339,-0.418L0.189,-0.418L0.189,-0.125C0.189,-0.076 0.212,-0.052 0.257,-0.052C0.282,-0.052 0.309,-0.058 0.34,-0.07L0.351,-0.014Z" style="fill:white;fill-rule:nonzero;"/>
            </g>
            <g transform="matrix(66.6667,0,0,66.6667,159.732,52.9288)">
                <path d="M0.166,-0.629L0.166,-0.227C0.166,-0.168 0.181,-0.126 0.21,-0.1C0.239,-0.074 0.278,-0.061 0.326,-0.061C0.374,-0.061 0.413,-0.074 0.442,-0.1C0.471,-0.126 0.486,-0.168 0.486,-0.227L0.486,-0.629L0.565,-0.629L0.565,-0.227C0.565,-0.148 0.543,-0.089 0.5,-0.049C0.457,-0.009 0.399,0.011 0.326,0.011C0.253,0.011 0.195,-0.009 0.152,-0.049C0.109,-0.089 0.087,-0.148 0.087,-0.227L0.087,-0.629L0.166,-0.629Z" style="fill:white;fill-rule:nonzero;"/>
            </g>
            <g transform="matrix(66.6667,0,0,66.6667,201.739,52.9288)">
                <path d="M0.076,-0.361C0.076,-0.4 0.093,-0.432 0.127,-0.455C0.16,-0.478 0.206,-0.49 0.263,-0.49C0.32,-0.49 0.365,-0.478 0.398,-0.454C0.43,-0.43 0.447,-0.4 0.448,-0.363L0.371,-0.363C0.365,-0.406 0.328,-0.428 0.261,-0.428C0.228,-0.428 0.203,-0.421 0.186,-0.406C0.168,-0.391 0.159,-0.376 0.159,-0.359C0.159,-0.341 0.166,-0.327 0.179,-0.316C0.192,-0.304 0.214,-0.294 0.243,-0.285L0.339,-0.253C0.38,-0.24 0.411,-0.224 0.433,-0.205C0.454,-0.185 0.465,-0.158 0.465,-0.124C0.465,-0.089 0.447,-0.058 0.412,-0.031C0.377,-0.003 0.327,0.011 0.264,0.011C0.201,0.011 0.151,-0.003 0.116,-0.032C0.081,-0.06 0.062,-0.096 0.06,-0.141L0.136,-0.141C0.137,-0.111 0.15,-0.089 0.173,-0.074C0.196,-0.058 0.224,-0.051 0.259,-0.051C0.294,-0.051 0.322,-0.058 0.345,-0.073C0.368,-0.088 0.379,-0.105 0.379,-0.126C0.379,-0.146 0.372,-0.161 0.359,-0.172C0.346,-0.183 0.324,-0.192 0.294,-0.2L0.201,-0.231C0.118,-0.256 0.076,-0.299 0.076,-0.361Z" style="fill:white;fill-rule:nonzero;"/>
            </g>
        </g>
        <g transform="matrix(1,0,0,1,19.0005,108.625)">
            <path d="M0,-0.002L-0.002,-0.002C-0.068,-0.097 -4.028,-5.752 -5.864,-6.545C-7.716,-7.346 -9.859,-6.476 -10.651,-4.603C-11.373,-2.892 -10.719,-0.937 -9.19,-0.001C-10.719,0.935 -11.373,2.89 -10.651,4.601C-9.859,6.474 -7.716,7.344 -5.864,6.543C-4.028,5.75 -0.068,0.095 -0.002,-0L0,-0L-0.001,-0.001L0,-0.002" style="fill:white;"/>
        </g>
    </g>
</svg>
